<mxfile host="Electron" modified="2023-05-25T03:13:29.545Z" agent="Mozilla/5.0 (Macintosh; Intel Mac OS X 10_15_7) AppleWebKit/537.36 (KHTML, like Gecko) draw.io/21.2.8 Chrome/112.0.5615.165 Electron/24.2.0 Safari/537.36" etag="k7gmOxyYiQdtGzU6DGzv" version="21.2.8" type="device">
  <diagram name="Page-1" id="aSoGBLzjzc4ezi1KXbFp">
    <mxGraphModel dx="909" dy="692" grid="1" gridSize="10" guides="1" tooltips="1" connect="1" arrows="1" fold="1" page="1" pageScale="1" pageWidth="850" pageHeight="1100" math="0" shadow="0">
      <root>
        <mxCell id="0" />
        <mxCell id="1" parent="0" />
        <mxCell id="-DmHzCtMdIsf1Z5lLzF8-64" style="edgeStyle=orthogonalEdgeStyle;rounded=0;orthogonalLoop=1;jettySize=auto;html=1;exitX=1;exitY=0.5;exitDx=0;exitDy=0;endArrow=ERone;endFill=0;startArrow=none;startFill=0;endSize=15;startSize=15;" edge="1" parent="1" source="-DmHzCtMdIsf1Z5lLzF8-73" target="-DmHzCtMdIsf1Z5lLzF8-45">
          <mxGeometry relative="1" as="geometry">
            <mxPoint x="1139" y="340" as="sourcePoint" />
          </mxGeometry>
        </mxCell>
        <mxCell id="-DmHzCtMdIsf1Z5lLzF8-70" style="edgeStyle=orthogonalEdgeStyle;rounded=0;orthogonalLoop=1;jettySize=auto;html=1;exitX=0;exitY=0.5;exitDx=0;exitDy=0;endArrow=ERmany;endFill=0;endSize=15;startSize=15;startArrow=none;startFill=0;" edge="1" parent="1" source="-DmHzCtMdIsf1Z5lLzF8-71" target="-DmHzCtMdIsf1Z5lLzF8-51">
          <mxGeometry relative="1" as="geometry" />
        </mxCell>
        <mxCell id="-DmHzCtMdIsf1Z5lLzF8-1" value="mahasiswa" style="rounded=1;whiteSpace=wrap;html=1;" vertex="1" parent="1">
          <mxGeometry x="787" y="310" width="120" height="60" as="geometry" />
        </mxCell>
        <mxCell id="-DmHzCtMdIsf1Z5lLzF8-3" value="nama_mhs" style="ellipse;whiteSpace=wrap;html=1;" vertex="1" parent="1">
          <mxGeometry x="757" y="220" width="80" height="50" as="geometry" />
        </mxCell>
        <mxCell id="-DmHzCtMdIsf1Z5lLzF8-4" value="alamat_mhs" style="ellipse;whiteSpace=wrap;html=1;" vertex="1" parent="1">
          <mxGeometry x="857" y="220" width="80" height="50" as="geometry" />
        </mxCell>
        <mxCell id="-DmHzCtMdIsf1Z5lLzF8-5" value="jurusan" style="ellipse;whiteSpace=wrap;html=1;" vertex="1" parent="1">
          <mxGeometry x="957" y="220" width="80" height="50" as="geometry" />
        </mxCell>
        <mxCell id="-DmHzCtMdIsf1Z5lLzF8-38" value="" style="endArrow=none;html=1;rounded=0;entryX=0.5;entryY=1;entryDx=0;entryDy=0;exitX=0.5;exitY=0;exitDx=0;exitDy=0;" edge="1" parent="1" source="-DmHzCtMdIsf1Z5lLzF8-1">
          <mxGeometry width="50" height="50" relative="1" as="geometry">
            <mxPoint x="1027" y="570" as="sourcePoint" />
            <mxPoint x="697" y="270" as="targetPoint" />
          </mxGeometry>
        </mxCell>
        <mxCell id="-DmHzCtMdIsf1Z5lLzF8-39" value="" style="endArrow=none;html=1;rounded=0;entryX=0.5;entryY=1;entryDx=0;entryDy=0;" edge="1" parent="1" target="-DmHzCtMdIsf1Z5lLzF8-3">
          <mxGeometry width="50" height="50" relative="1" as="geometry">
            <mxPoint x="847" y="310" as="sourcePoint" />
            <mxPoint x="707" y="280" as="targetPoint" />
          </mxGeometry>
        </mxCell>
        <mxCell id="-DmHzCtMdIsf1Z5lLzF8-40" value="" style="endArrow=none;html=1;rounded=0;entryX=0.5;entryY=1;entryDx=0;entryDy=0;exitX=0.5;exitY=0;exitDx=0;exitDy=0;" edge="1" parent="1" source="-DmHzCtMdIsf1Z5lLzF8-1" target="-DmHzCtMdIsf1Z5lLzF8-4">
          <mxGeometry width="50" height="50" relative="1" as="geometry">
            <mxPoint x="857" y="320" as="sourcePoint" />
            <mxPoint x="807" y="280" as="targetPoint" />
          </mxGeometry>
        </mxCell>
        <mxCell id="-DmHzCtMdIsf1Z5lLzF8-41" value="" style="endArrow=none;html=1;rounded=0;entryX=0.5;entryY=1;entryDx=0;entryDy=0;exitX=0.5;exitY=0;exitDx=0;exitDy=0;" edge="1" parent="1" source="-DmHzCtMdIsf1Z5lLzF8-1" target="-DmHzCtMdIsf1Z5lLzF8-5">
          <mxGeometry width="50" height="50" relative="1" as="geometry">
            <mxPoint x="857" y="320" as="sourcePoint" />
            <mxPoint x="907" y="280" as="targetPoint" />
          </mxGeometry>
        </mxCell>
        <mxCell id="-DmHzCtMdIsf1Z5lLzF8-69" value="" style="rounded=0;orthogonalLoop=1;jettySize=auto;html=1;endArrow=none;endFill=0;exitX=0.5;exitY=1;exitDx=0;exitDy=0;entryX=0.5;entryY=0;entryDx=0;entryDy=0;" edge="1" parent="1" source="-DmHzCtMdIsf1Z5lLzF8-42" target="-DmHzCtMdIsf1Z5lLzF8-68">
          <mxGeometry relative="1" as="geometry" />
        </mxCell>
        <mxCell id="-DmHzCtMdIsf1Z5lLzF8-75" style="edgeStyle=orthogonalEdgeStyle;rounded=0;orthogonalLoop=1;jettySize=auto;html=1;exitX=0;exitY=0.5;exitDx=0;exitDy=0;entryX=0.5;entryY=1;entryDx=0;entryDy=0;startArrow=ERone;startFill=0;endArrow=ERone;endFill=0;endSize=15;startSize=15;" edge="1" parent="1" source="-DmHzCtMdIsf1Z5lLzF8-42" target="-DmHzCtMdIsf1Z5lLzF8-51">
          <mxGeometry relative="1" as="geometry">
            <mxPoint x="530" y="450" as="targetPoint" />
          </mxGeometry>
        </mxCell>
        <mxCell id="-DmHzCtMdIsf1Z5lLzF8-76" style="edgeStyle=orthogonalEdgeStyle;rounded=0;orthogonalLoop=1;jettySize=auto;html=1;exitX=1;exitY=0.5;exitDx=0;exitDy=0;entryX=0.5;entryY=1;entryDx=0;entryDy=0;endArrow=ERmany;endFill=0;startArrow=ERone;startFill=0;endSize=15;startSize=15;" edge="1" parent="1" source="-DmHzCtMdIsf1Z5lLzF8-42" target="-DmHzCtMdIsf1Z5lLzF8-45">
          <mxGeometry relative="1" as="geometry" />
        </mxCell>
        <mxCell id="-DmHzCtMdIsf1Z5lLzF8-42" value="dosen" style="rounded=1;whiteSpace=wrap;html=1;" vertex="1" parent="1">
          <mxGeometry x="787" y="570" width="120" height="60" as="geometry" />
        </mxCell>
        <mxCell id="-DmHzCtMdIsf1Z5lLzF8-43" value="nama_dosen" style="ellipse;whiteSpace=wrap;html=1;" vertex="1" parent="1">
          <mxGeometry x="874" y="660" width="80" height="50" as="geometry" />
        </mxCell>
        <mxCell id="-DmHzCtMdIsf1Z5lLzF8-44" value="" style="endArrow=none;html=1;rounded=0;entryX=0.5;entryY=0;entryDx=0;entryDy=0;exitX=0.5;exitY=1;exitDx=0;exitDy=0;" edge="1" parent="1" target="-DmHzCtMdIsf1Z5lLzF8-43" source="-DmHzCtMdIsf1Z5lLzF8-42">
          <mxGeometry width="50" height="50" relative="1" as="geometry">
            <mxPoint x="847" y="570" as="sourcePoint" />
            <mxPoint x="1077" y="780" as="targetPoint" />
          </mxGeometry>
        </mxCell>
        <mxCell id="-DmHzCtMdIsf1Z5lLzF8-45" value="jurusan" style="rounded=1;whiteSpace=wrap;html=1;" vertex="1" parent="1">
          <mxGeometry x="1149" y="310" width="120" height="60" as="geometry" />
        </mxCell>
        <mxCell id="-DmHzCtMdIsf1Z5lLzF8-57" style="rounded=0;orthogonalLoop=1;jettySize=auto;html=1;exitX=0.5;exitY=1;exitDx=0;exitDy=0;entryX=0.5;entryY=0;entryDx=0;entryDy=0;endArrow=none;endFill=0;" edge="1" parent="1" source="-DmHzCtMdIsf1Z5lLzF8-66" target="-DmHzCtMdIsf1Z5lLzF8-45">
          <mxGeometry relative="1" as="geometry">
            <mxPoint x="1309" y="255" as="sourcePoint" />
          </mxGeometry>
        </mxCell>
        <mxCell id="-DmHzCtMdIsf1Z5lLzF8-50" value="nama_jurusan" style="ellipse;whiteSpace=wrap;html=1;" vertex="1" parent="1">
          <mxGeometry x="1233" y="220" width="80" height="50" as="geometry" />
        </mxCell>
        <mxCell id="-DmHzCtMdIsf1Z5lLzF8-59" style="rounded=0;orthogonalLoop=1;jettySize=auto;html=1;exitX=0.5;exitY=0;exitDx=0;exitDy=0;entryX=0.5;entryY=1;entryDx=0;entryDy=0;endArrow=none;endFill=0;" edge="1" parent="1" source="-DmHzCtMdIsf1Z5lLzF8-51" target="-DmHzCtMdIsf1Z5lLzF8-67">
          <mxGeometry relative="1" as="geometry">
            <mxPoint x="350" y="410" as="targetPoint" />
          </mxGeometry>
        </mxCell>
        <mxCell id="-DmHzCtMdIsf1Z5lLzF8-51" value="matakuliah" style="rounded=1;whiteSpace=wrap;html=1;" vertex="1" parent="1">
          <mxGeometry x="390" y="310" width="120" height="60" as="geometry" />
        </mxCell>
        <mxCell id="-DmHzCtMdIsf1Z5lLzF8-53" value="nama_mk" style="ellipse;whiteSpace=wrap;html=1;" vertex="1" parent="1">
          <mxGeometry x="410" y="220" width="80" height="50" as="geometry" />
        </mxCell>
        <mxCell id="-DmHzCtMdIsf1Z5lLzF8-54" value="sks" style="ellipse;whiteSpace=wrap;html=1;" vertex="1" parent="1">
          <mxGeometry x="510" y="220" width="80" height="50" as="geometry" />
        </mxCell>
        <mxCell id="-DmHzCtMdIsf1Z5lLzF8-56" value="" style="endArrow=ERmany;html=1;rounded=0;entryX=0.5;entryY=1;entryDx=0;entryDy=0;exitX=0.5;exitY=0;exitDx=0;exitDy=0;jumpStyle=none;startArrow=none;startFill=0;endFill=0;strokeWidth=1;targetPerimeterSpacing=0;startSize=15;endSize=15;" edge="1" parent="1" source="-DmHzCtMdIsf1Z5lLzF8-62" target="-DmHzCtMdIsf1Z5lLzF8-1">
          <mxGeometry width="50" height="50" relative="1" as="geometry">
            <mxPoint x="1027" y="600" as="sourcePoint" />
            <mxPoint x="1077" y="550" as="targetPoint" />
          </mxGeometry>
        </mxCell>
        <mxCell id="-DmHzCtMdIsf1Z5lLzF8-58" style="rounded=0;orthogonalLoop=1;jettySize=auto;html=1;exitX=0.5;exitY=1;exitDx=0;exitDy=0;entryX=0.5;entryY=0;entryDx=0;entryDy=0;endArrow=none;endFill=0;" edge="1" parent="1" source="-DmHzCtMdIsf1Z5lLzF8-50" target="-DmHzCtMdIsf1Z5lLzF8-45">
          <mxGeometry relative="1" as="geometry">
            <mxPoint x="1319" y="265" as="sourcePoint" />
            <mxPoint x="1279" y="350" as="targetPoint" />
          </mxGeometry>
        </mxCell>
        <mxCell id="-DmHzCtMdIsf1Z5lLzF8-60" style="rounded=0;orthogonalLoop=1;jettySize=auto;html=1;endArrow=none;endFill=0;" edge="1" parent="1">
          <mxGeometry relative="1" as="geometry">
            <mxPoint x="450" y="310" as="sourcePoint" />
            <mxPoint x="450" y="270" as="targetPoint" />
          </mxGeometry>
        </mxCell>
        <mxCell id="-DmHzCtMdIsf1Z5lLzF8-61" style="rounded=0;orthogonalLoop=1;jettySize=auto;html=1;exitX=0.5;exitY=0;exitDx=0;exitDy=0;entryX=0.5;entryY=1;entryDx=0;entryDy=0;endArrow=none;endFill=0;" edge="1" parent="1" source="-DmHzCtMdIsf1Z5lLzF8-51" target="-DmHzCtMdIsf1Z5lLzF8-54">
          <mxGeometry relative="1" as="geometry">
            <mxPoint x="460" y="380" as="sourcePoint" />
            <mxPoint x="360" y="420" as="targetPoint" />
          </mxGeometry>
        </mxCell>
        <mxCell id="-DmHzCtMdIsf1Z5lLzF8-63" value="" style="endArrow=none;html=1;rounded=0;entryX=0.5;entryY=1;entryDx=0;entryDy=0;exitX=0.5;exitY=0;exitDx=0;exitDy=0;jumpStyle=none;startArrow=ERmany;startFill=0;endFill=0;strokeWidth=1;targetPerimeterSpacing=0;startSize=15;endSize=15;" edge="1" parent="1" source="-DmHzCtMdIsf1Z5lLzF8-42" target="-DmHzCtMdIsf1Z5lLzF8-62">
          <mxGeometry width="50" height="50" relative="1" as="geometry">
            <mxPoint x="847" y="570" as="sourcePoint" />
            <mxPoint x="847" y="370" as="targetPoint" />
          </mxGeometry>
        </mxCell>
        <mxCell id="-DmHzCtMdIsf1Z5lLzF8-62" value="teach" style="shape=rhombus;perimeter=rhombusPerimeter;whiteSpace=wrap;html=1;align=center;" vertex="1" parent="1">
          <mxGeometry x="787" y="430" width="120" height="60" as="geometry" />
        </mxCell>
        <mxCell id="-DmHzCtMdIsf1Z5lLzF8-65" value="nim" style="ellipse;shape=doubleEllipse;margin=3;whiteSpace=wrap;html=1;align=center;" vertex="1" parent="1">
          <mxGeometry x="657" y="220" width="80" height="50" as="geometry" />
        </mxCell>
        <mxCell id="-DmHzCtMdIsf1Z5lLzF8-66" value="id_jurusan" style="ellipse;shape=doubleEllipse;margin=3;whiteSpace=wrap;html=1;align=center;" vertex="1" parent="1">
          <mxGeometry x="1113" y="220" width="80" height="50" as="geometry" />
        </mxCell>
        <mxCell id="-DmHzCtMdIsf1Z5lLzF8-67" value="id_mk" style="ellipse;shape=doubleEllipse;margin=3;whiteSpace=wrap;html=1;align=center;" vertex="1" parent="1">
          <mxGeometry x="310" y="220" width="80" height="50" as="geometry" />
        </mxCell>
        <mxCell id="-DmHzCtMdIsf1Z5lLzF8-68" value="id_dosen" style="ellipse;shape=doubleEllipse;margin=3;whiteSpace=wrap;html=1;align=center;" vertex="1" parent="1">
          <mxGeometry x="740" y="660" width="80" height="50" as="geometry" />
        </mxCell>
        <mxCell id="-DmHzCtMdIsf1Z5lLzF8-72" value="" style="edgeStyle=orthogonalEdgeStyle;rounded=0;orthogonalLoop=1;jettySize=auto;html=1;exitX=0;exitY=0.5;exitDx=0;exitDy=0;endArrow=none;endFill=0;endSize=15;startSize=15;startArrow=ERmany;startFill=0;" edge="1" parent="1" source="-DmHzCtMdIsf1Z5lLzF8-1" target="-DmHzCtMdIsf1Z5lLzF8-71">
          <mxGeometry relative="1" as="geometry">
            <mxPoint x="787" y="340" as="sourcePoint" />
            <mxPoint x="510" y="340" as="targetPoint" />
          </mxGeometry>
        </mxCell>
        <mxCell id="-DmHzCtMdIsf1Z5lLzF8-71" value="have" style="shape=rhombus;perimeter=rhombusPerimeter;whiteSpace=wrap;html=1;align=center;" vertex="1" parent="1">
          <mxGeometry x="580" y="310" width="120" height="60" as="geometry" />
        </mxCell>
        <mxCell id="-DmHzCtMdIsf1Z5lLzF8-74" value="" style="edgeStyle=orthogonalEdgeStyle;rounded=0;orthogonalLoop=1;jettySize=auto;html=1;exitX=1;exitY=0.5;exitDx=0;exitDy=0;endArrow=none;endFill=0;startArrow=ERmany;startFill=0;endSize=15;startSize=15;" edge="1" parent="1" source="-DmHzCtMdIsf1Z5lLzF8-1" target="-DmHzCtMdIsf1Z5lLzF8-73">
          <mxGeometry relative="1" as="geometry">
            <mxPoint x="907" y="340" as="sourcePoint" />
            <mxPoint x="1100" y="340" as="targetPoint" />
          </mxGeometry>
        </mxCell>
        <mxCell id="-DmHzCtMdIsf1Z5lLzF8-73" value="have" style="shape=rhombus;perimeter=rhombusPerimeter;whiteSpace=wrap;html=1;align=center;" vertex="1" parent="1">
          <mxGeometry x="970" y="310" width="120" height="60" as="geometry" />
        </mxCell>
      </root>
    </mxGraphModel>
  </diagram>
</mxfile>
